<svg width="34" height="30" viewBox="0 0 34 30" fill="none" xmlns="http://www.w3.org/2000/svg">
<path d="M29.9009 0V-0.5H29.8745L29.8482 -0.497213L29.9009 0ZM27.8568 18.8424L27.3589 18.7964L27.8568 18.8424ZM2.02611 2.95546L2.07883 3.45268L2.02611 2.95546ZM-0.245184 5.25262L0.753804 13.295L1.74618 13.1717L0.74719 5.12935L-0.245184 5.25262ZM33 -0.5H29.9009V0.5H33V-0.5ZM29.8482 -0.497213C18.8639 0.667414 12.4191 1.35073 1.97339 2.45825L2.07883 3.45268C12.5245 2.34515 18.9693 1.66184 29.9536 0.497213L29.8482 -0.497213ZM29.404 -0.0559484L27.7165 14.9309L28.7102 15.0428L30.3977 0.0559484L29.404 -0.0559484ZM27.7154 14.9408L27.3589 18.7964L28.3547 18.8885L28.7112 15.0328L27.7154 14.9408ZM3.23474 15.4868H28.2133V14.4868H3.23474V15.4868ZM25.8653 20.1583H2.11925V21.1583H25.8653V20.1583ZM0.753804 13.295C0.909313 14.5469 1.97319 15.4868 3.23474 15.4868V14.4868C2.47781 14.4868 1.83948 13.9229 1.74618 13.1717L0.753804 13.295ZM27.3589 18.7964C27.2876 19.568 26.6402 20.1583 25.8653 20.1583V21.1583C27.1568 21.1583 28.2358 20.1745 28.3547 18.8885L27.3589 18.7964ZM0.74719 5.12935C0.643822 4.29719 1.24414 3.54117 2.07883 3.45268L1.97339 2.45825C0.583322 2.60563 -0.417597 3.86461 -0.245184 5.25262L0.74719 5.12935Z" transform="translate(1 1.17688)" fill="#888888"/>
<ellipse cx="2.72913" cy="2.70485" rx="2.72913" ry="2.70485" transform="translate(7.39087 23.7672)" fill="#888888"/>
<ellipse cx="2.72913" cy="2.70485" rx="2.72913" ry="2.70485" transform="translate(21.0365 23.7672)" fill="#888888"/>
</svg>
