<svg xmlns="http://www.w3.org/2000/svg" width="34" height="33" fill="none"><path d="M25.88 1.387a1.394 1.394 0 1 1 2.774.277l-1.525 15.26a1.394 1.394 0 0 1-2.775-.277l1.525-15.26Z" fill="#C00A26"/><path d="M30.9 4.177v-.5h-.025l-.027.003.053.497Zm-2.043 18.842-.498-.046.498.046ZM3.027 7.132l.052.498-.053-.498ZM.754 9.43l.999 8.042.992-.123-.999-8.043-.992.124ZM34 3.677h-3.1v1H34v-1Zm-3.152.003L2.973 6.635l.106.995 27.875-2.956-.106-.994Zm-.444.44-1.688 14.988.994.112 1.688-14.987-.994-.112Zm-1.689 14.998-.356 3.855.996.092.356-3.855-.996-.092Zm-24.48.546h24.978v-1H4.235v1Zm22.63 4.671H3.12v1h23.746v-1ZM1.754 17.472a2.5 2.5 0 0 0 2.48 2.192v-1a1.5 1.5 0 0 1-1.488-1.315l-.992.123Zm26.605 5.501a1.5 1.5 0 0 1-1.494 1.362v1a2.5 2.5 0 0 0 2.49-2.27l-.996-.092ZM1.747 9.306A1.501 1.501 0 0 1 3.08 7.63l-.106-.995A2.501 2.501 0 0 0 .755 9.43l.992-.124Z" fill="#888"/><ellipse cx="2.729" cy="2.705" rx="2.729" ry="2.705" transform="translate(7.39 26.767)" fill="#888"/><ellipse cx="2.729" cy="2.705" rx="2.729" ry="2.705" transform="translate(21.037 26.767)" fill="#888"/></svg>